<mxfile host="Electron" agent="Mozilla/5.0 (Windows NT 10.0; Win64; x64) AppleWebKit/537.36 (KHTML, like Gecko) draw.io/27.0.9 Chrome/134.0.6998.205 Electron/35.4.0 Safari/537.36" version="27.0.9">
  <diagram name="Page-1" id="dXwQtHPrC6B3gaWJkbqd">
    <mxGraphModel dx="3554" dy="2369" grid="1" gridSize="10" guides="1" tooltips="1" connect="1" arrows="1" fold="1" page="1" pageScale="1" pageWidth="827" pageHeight="1169" math="0" shadow="0">
      <root>
        <mxCell id="0" />
        <mxCell id="1" parent="0" />
        <mxCell id="l4a3ZNnCRkhxxQ0GikSz-41" style="rounded=0;orthogonalLoop=1;jettySize=auto;html=1;exitX=0.5;exitY=0;exitDx=0;exitDy=0;entryX=0;entryY=0.5;entryDx=0;entryDy=0;endSize=12;endArrow=none;startFill=0;edgeStyle=orthogonalEdgeStyle;" edge="1" parent="1" source="l4a3ZNnCRkhxxQ0GikSz-110" target="hUzoa4hwkYSUWMRfbID5-6">
          <mxGeometry relative="1" as="geometry">
            <mxPoint x="-20" y="350" as="sourcePoint" />
            <Array as="points">
              <mxPoint x="-310" y="280" />
              <mxPoint x="-90" y="280" />
              <mxPoint x="-90" y="151" />
            </Array>
          </mxGeometry>
        </mxCell>
        <mxCell id="l4a3ZNnCRkhxxQ0GikSz-31" style="edgeStyle=orthogonalEdgeStyle;rounded=0;orthogonalLoop=1;jettySize=auto;html=1;exitX=1;exitY=0.5;exitDx=0;exitDy=0;entryX=0.5;entryY=0;entryDx=0;entryDy=0;endArrow=diamond;endFill=1;endSize=12;" edge="1" parent="1" source="l4a3ZNnCRkhxxQ0GikSz-25" target="l4a3ZNnCRkhxxQ0GikSz-153">
          <mxGeometry relative="1" as="geometry">
            <mxPoint x="500" y="350" as="targetPoint" />
            <Array as="points">
              <mxPoint x="400" y="421" />
            </Array>
          </mxGeometry>
        </mxCell>
        <mxCell id="l4a3ZNnCRkhxxQ0GikSz-39" style="edgeStyle=orthogonalEdgeStyle;rounded=0;orthogonalLoop=1;jettySize=auto;html=1;exitX=0.5;exitY=0;exitDx=0;exitDy=0;entryX=0.25;entryY=0;entryDx=0;entryDy=0;endArrow=none;startFill=0;" edge="1" parent="1" source="l4a3ZNnCRkhxxQ0GikSz-76" target="l4a3ZNnCRkhxxQ0GikSz-118">
          <mxGeometry relative="1" as="geometry">
            <mxPoint x="-160" y="160" as="sourcePoint" />
            <mxPoint x="55" y="230" as="targetPoint" />
          </mxGeometry>
        </mxCell>
        <mxCell id="l4a3ZNnCRkhxxQ0GikSz-50" style="edgeStyle=orthogonalEdgeStyle;rounded=0;orthogonalLoop=1;jettySize=auto;html=1;exitX=0.5;exitY=0;exitDx=0;exitDy=0;entryX=1;entryY=0.5;entryDx=0;entryDy=0;endArrow=none;startFill=0;" edge="1" parent="1" source="l4a3ZNnCRkhxxQ0GikSz-102" target="l4a3ZNnCRkhxxQ0GikSz-43">
          <mxGeometry relative="1" as="geometry">
            <mxPoint x="-430" y="450" as="sourcePoint" />
          </mxGeometry>
        </mxCell>
        <mxCell id="l4a3ZNnCRkhxxQ0GikSz-56" style="edgeStyle=orthogonalEdgeStyle;rounded=0;orthogonalLoop=1;jettySize=auto;html=1;exitX=0.5;exitY=0;exitDx=0;exitDy=0;entryX=0;entryY=0.5;entryDx=0;entryDy=0;endArrow=none;startFill=0;" edge="1" parent="1" source="l4a3ZNnCRkhxxQ0GikSz-82" target="l4a3ZNnCRkhxxQ0GikSz-51">
          <mxGeometry relative="1" as="geometry">
            <mxPoint x="-240" y="565" as="sourcePoint" />
          </mxGeometry>
        </mxCell>
        <mxCell id="l4a3ZNnCRkhxxQ0GikSz-68" style="edgeStyle=orthogonalEdgeStyle;rounded=0;orthogonalLoop=1;jettySize=auto;html=1;exitX=1;exitY=0.5;exitDx=0;exitDy=0;entryX=0.75;entryY=0;entryDx=0;entryDy=0;endArrow=none;startFill=0;" edge="1" parent="1" source="l4a3ZNnCRkhxxQ0GikSz-62" target="l4a3ZNnCRkhxxQ0GikSz-145">
          <mxGeometry relative="1" as="geometry">
            <mxPoint x="415.53999999999996" y="85.87999999999988" as="targetPoint" />
            <Array as="points">
              <mxPoint x="390" y="151" />
              <mxPoint x="390" y="290" />
              <mxPoint x="240" y="290" />
            </Array>
          </mxGeometry>
        </mxCell>
        <mxCell id="l4a3ZNnCRkhxxQ0GikSz-71" style="edgeStyle=orthogonalEdgeStyle;rounded=0;orthogonalLoop=1;jettySize=auto;html=1;exitX=0;exitY=0.5;exitDx=0;exitDy=0;entryX=0.994;entryY=0.085;entryDx=0;entryDy=0;endArrow=none;startFill=0;entryPerimeter=0;" edge="1" parent="1" source="l4a3ZNnCRkhxxQ0GikSz-15" target="l4a3ZNnCRkhxxQ0GikSz-118">
          <mxGeometry relative="1" as="geometry">
            <mxPoint x="160" y="245" as="targetPoint" />
          </mxGeometry>
        </mxCell>
        <mxCell id="l4a3ZNnCRkhxxQ0GikSz-76" value="TempatJualCilok" style="swimlane;fontStyle=1;align=center;verticalAlign=top;childLayout=stackLayout;horizontal=1;startSize=26;horizontalStack=0;resizeParent=1;resizeParentMax=0;resizeLast=0;collapsible=1;marginBottom=0;whiteSpace=wrap;html=1;" vertex="1" parent="1">
          <mxGeometry x="-290" y="20" width="160" height="206" as="geometry" />
        </mxCell>
        <mxCell id="l4a3ZNnCRkhxxQ0GikSz-33" value="&lt;div&gt;- KodeTempat&lt;/div&gt;" style="text;strokeColor=none;fillColor=none;align=left;verticalAlign=middle;spacingLeft=4;spacingRight=4;overflow=hidden;points=[[0,0.5],[1,0.5]];portConstraint=eastwest;rotatable=0;whiteSpace=wrap;html=1;" vertex="1" parent="l4a3ZNnCRkhxxQ0GikSz-76">
          <mxGeometry y="26" width="160" height="30" as="geometry" />
        </mxCell>
        <mxCell id="l4a3ZNnCRkhxxQ0GikSz-34" value="&lt;div&gt;- Nama&lt;/div&gt;" style="text;strokeColor=none;fillColor=none;align=left;verticalAlign=middle;spacingLeft=4;spacingRight=4;overflow=hidden;points=[[0,0.5],[1,0.5]];portConstraint=eastwest;rotatable=0;whiteSpace=wrap;html=1;" vertex="1" parent="l4a3ZNnCRkhxxQ0GikSz-76">
          <mxGeometry y="56" width="160" height="30" as="geometry" />
        </mxCell>
        <mxCell id="l4a3ZNnCRkhxxQ0GikSz-35" value="&lt;div&gt;- ListStringAlamat&lt;/div&gt;" style="text;strokeColor=none;fillColor=none;align=left;verticalAlign=middle;spacingLeft=4;spacingRight=4;overflow=hidden;points=[[0,0.5],[1,0.5]];portConstraint=eastwest;rotatable=0;whiteSpace=wrap;html=1;" vertex="1" parent="l4a3ZNnCRkhxxQ0GikSz-76">
          <mxGeometry y="86" width="160" height="30" as="geometry" />
        </mxCell>
        <mxCell id="l4a3ZNnCRkhxxQ0GikSz-36" value="&lt;div&gt;- jaringan (online/offline)&lt;/div&gt;" style="text;strokeColor=none;fillColor=none;align=left;verticalAlign=middle;spacingLeft=4;spacingRight=4;overflow=hidden;points=[[0,0.5],[1,0.5]];portConstraint=eastwest;rotatable=0;whiteSpace=wrap;html=1;" vertex="1" parent="l4a3ZNnCRkhxxQ0GikSz-76">
          <mxGeometry y="116" width="160" height="30" as="geometry" />
        </mxCell>
        <mxCell id="l4a3ZNnCRkhxxQ0GikSz-78" value="" style="line;strokeWidth=1;fillColor=none;align=left;verticalAlign=middle;spacingTop=-1;spacingLeft=3;spacingRight=3;rotatable=0;labelPosition=right;points=[];portConstraint=eastwest;strokeColor=inherit;" vertex="1" parent="l4a3ZNnCRkhxxQ0GikSz-76">
          <mxGeometry y="146" width="160" height="8" as="geometry" />
        </mxCell>
        <mxCell id="l4a3ZNnCRkhxxQ0GikSz-79" value="+ Setter dan Getter" style="text;strokeColor=none;fillColor=none;align=left;verticalAlign=top;spacingLeft=4;spacingRight=4;overflow=hidden;rotatable=0;points=[[0,0.5],[1,0.5]];portConstraint=eastwest;whiteSpace=wrap;html=1;" vertex="1" parent="l4a3ZNnCRkhxxQ0GikSz-76">
          <mxGeometry y="154" width="160" height="26" as="geometry" />
        </mxCell>
        <mxCell id="l4a3ZNnCRkhxxQ0GikSz-80" value="+ PrintTempat" style="text;strokeColor=none;fillColor=none;align=left;verticalAlign=top;spacingLeft=4;spacingRight=4;overflow=hidden;rotatable=0;points=[[0,0.5],[1,0.5]];portConstraint=eastwest;whiteSpace=wrap;html=1;" vertex="1" parent="l4a3ZNnCRkhxxQ0GikSz-76">
          <mxGeometry y="180" width="160" height="26" as="geometry" />
        </mxCell>
        <mxCell id="l4a3ZNnCRkhxxQ0GikSz-82" value="KategoriStandarEkspor" style="swimlane;fontStyle=1;align=center;verticalAlign=top;childLayout=stackLayout;horizontal=1;startSize=26;horizontalStack=0;resizeParent=1;resizeParentMax=0;resizeLast=0;collapsible=1;marginBottom=0;whiteSpace=wrap;html=1;" vertex="1" parent="1">
          <mxGeometry x="-390" y="500" width="160" height="176" as="geometry" />
        </mxCell>
        <mxCell id="l4a3ZNnCRkhxxQ0GikSz-53" value="&lt;div&gt;- KodeStandar&lt;/div&gt;" style="text;strokeColor=none;fillColor=none;align=left;verticalAlign=middle;spacingLeft=4;spacingRight=4;overflow=hidden;points=[[0,0.5],[1,0.5]];portConstraint=eastwest;rotatable=0;whiteSpace=wrap;html=1;" vertex="1" parent="l4a3ZNnCRkhxxQ0GikSz-82">
          <mxGeometry y="26" width="160" height="30" as="geometry" />
        </mxCell>
        <mxCell id="l4a3ZNnCRkhxxQ0GikSz-54" value="&lt;div&gt;- NamaStandar&lt;/div&gt;" style="text;strokeColor=none;fillColor=none;align=left;verticalAlign=middle;spacingLeft=4;spacingRight=4;overflow=hidden;points=[[0,0.5],[1,0.5]];portConstraint=eastwest;rotatable=0;whiteSpace=wrap;html=1;" vertex="1" parent="l4a3ZNnCRkhxxQ0GikSz-82">
          <mxGeometry y="56" width="160" height="30" as="geometry" />
        </mxCell>
        <mxCell id="l4a3ZNnCRkhxxQ0GikSz-100" value="&lt;div&gt;- Level&lt;/div&gt;" style="text;strokeColor=none;fillColor=none;align=left;verticalAlign=middle;spacingLeft=4;spacingRight=4;overflow=hidden;points=[[0,0.5],[1,0.5]];portConstraint=eastwest;rotatable=0;whiteSpace=wrap;html=1;" vertex="1" parent="l4a3ZNnCRkhxxQ0GikSz-82">
          <mxGeometry y="86" width="160" height="30" as="geometry" />
        </mxCell>
        <mxCell id="l4a3ZNnCRkhxxQ0GikSz-87" value="" style="line;strokeWidth=1;fillColor=none;align=left;verticalAlign=middle;spacingTop=-1;spacingLeft=3;spacingRight=3;rotatable=0;labelPosition=right;points=[];portConstraint=eastwest;strokeColor=inherit;" vertex="1" parent="l4a3ZNnCRkhxxQ0GikSz-82">
          <mxGeometry y="116" width="160" height="8" as="geometry" />
        </mxCell>
        <mxCell id="l4a3ZNnCRkhxxQ0GikSz-88" value="+ Setter dan Getter" style="text;strokeColor=none;fillColor=none;align=left;verticalAlign=top;spacingLeft=4;spacingRight=4;overflow=hidden;rotatable=0;points=[[0,0.5],[1,0.5]];portConstraint=eastwest;whiteSpace=wrap;html=1;" vertex="1" parent="l4a3ZNnCRkhxxQ0GikSz-82">
          <mxGeometry y="124" width="160" height="26" as="geometry" />
        </mxCell>
        <mxCell id="l4a3ZNnCRkhxxQ0GikSz-89" value="+ PrintKategori" style="text;strokeColor=none;fillColor=none;align=left;verticalAlign=top;spacingLeft=4;spacingRight=4;overflow=hidden;rotatable=0;points=[[0,0.5],[1,0.5]];portConstraint=eastwest;whiteSpace=wrap;html=1;" vertex="1" parent="l4a3ZNnCRkhxxQ0GikSz-82">
          <mxGeometry y="150" width="160" height="26" as="geometry" />
        </mxCell>
        <mxCell id="l4a3ZNnCRkhxxQ0GikSz-101" style="edgeStyle=orthogonalEdgeStyle;rounded=0;orthogonalLoop=1;jettySize=auto;html=1;exitX=0.5;exitY=0;exitDx=0;exitDy=0;entryX=1;entryY=0.5;entryDx=0;entryDy=0;endArrow=none;startFill=1;startArrow=diamond;endSize=6;startSize=12;" edge="1" parent="1" source="l4a3ZNnCRkhxxQ0GikSz-90" target="l4a3ZNnCRkhxxQ0GikSz-100">
          <mxGeometry relative="1" as="geometry">
            <Array as="points">
              <mxPoint x="-70" y="601" />
            </Array>
          </mxGeometry>
        </mxCell>
        <mxCell id="l4a3ZNnCRkhxxQ0GikSz-90" value="LevelKategori" style="swimlane;fontStyle=1;align=center;verticalAlign=top;childLayout=stackLayout;horizontal=1;startSize=26;horizontalStack=0;resizeParent=1;resizeParentMax=0;resizeLast=0;collapsible=1;marginBottom=0;whiteSpace=wrap;html=1;" vertex="1" parent="1">
          <mxGeometry x="-150" y="630" width="160" height="146" as="geometry" />
        </mxCell>
        <mxCell id="l4a3ZNnCRkhxxQ0GikSz-91" value="&lt;div&gt;- JenisLevel&lt;/div&gt;" style="text;strokeColor=none;fillColor=none;align=left;verticalAlign=middle;spacingLeft=4;spacingRight=4;overflow=hidden;points=[[0,0.5],[1,0.5]];portConstraint=eastwest;rotatable=0;whiteSpace=wrap;html=1;" vertex="1" parent="l4a3ZNnCRkhxxQ0GikSz-90">
          <mxGeometry y="26" width="160" height="30" as="geometry" />
        </mxCell>
        <mxCell id="l4a3ZNnCRkhxxQ0GikSz-92" value="&lt;div&gt;- Nilai (1-10)&lt;/div&gt;" style="text;strokeColor=none;fillColor=none;align=left;verticalAlign=middle;spacingLeft=4;spacingRight=4;overflow=hidden;points=[[0,0.5],[1,0.5]];portConstraint=eastwest;rotatable=0;whiteSpace=wrap;html=1;" vertex="1" parent="l4a3ZNnCRkhxxQ0GikSz-90">
          <mxGeometry y="56" width="160" height="30" as="geometry" />
        </mxCell>
        <mxCell id="l4a3ZNnCRkhxxQ0GikSz-96" value="" style="line;strokeWidth=1;fillColor=none;align=left;verticalAlign=middle;spacingTop=-1;spacingLeft=3;spacingRight=3;rotatable=0;labelPosition=right;points=[];portConstraint=eastwest;strokeColor=inherit;" vertex="1" parent="l4a3ZNnCRkhxxQ0GikSz-90">
          <mxGeometry y="86" width="160" height="8" as="geometry" />
        </mxCell>
        <mxCell id="l4a3ZNnCRkhxxQ0GikSz-97" value="+ Setter dan Getter" style="text;strokeColor=none;fillColor=none;align=left;verticalAlign=top;spacingLeft=4;spacingRight=4;overflow=hidden;rotatable=0;points=[[0,0.5],[1,0.5]];portConstraint=eastwest;whiteSpace=wrap;html=1;" vertex="1" parent="l4a3ZNnCRkhxxQ0GikSz-90">
          <mxGeometry y="94" width="160" height="26" as="geometry" />
        </mxCell>
        <mxCell id="l4a3ZNnCRkhxxQ0GikSz-98" value="+ PrintLevel" style="text;strokeColor=none;fillColor=none;align=left;verticalAlign=top;spacingLeft=4;spacingRight=4;overflow=hidden;rotatable=0;points=[[0,0.5],[1,0.5]];portConstraint=eastwest;whiteSpace=wrap;html=1;" vertex="1" parent="l4a3ZNnCRkhxxQ0GikSz-90">
          <mxGeometry y="120" width="160" height="26" as="geometry" />
        </mxCell>
        <mxCell id="l4a3ZNnCRkhxxQ0GikSz-102" value="NegaraEksporCilok" style="swimlane;fontStyle=1;align=center;verticalAlign=top;childLayout=stackLayout;horizontal=1;startSize=26;horizontalStack=0;resizeParent=1;resizeParentMax=0;resizeLast=0;collapsible=1;marginBottom=0;whiteSpace=wrap;html=1;" vertex="1" parent="1">
          <mxGeometry x="-90" y="390" width="160" height="176" as="geometry" />
        </mxCell>
        <mxCell id="l4a3ZNnCRkhxxQ0GikSz-48" value="&lt;div&gt;- KodeNegara&lt;/div&gt;" style="text;strokeColor=none;fillColor=none;align=left;verticalAlign=middle;spacingLeft=4;spacingRight=4;overflow=hidden;points=[[0,0.5],[1,0.5]];portConstraint=eastwest;rotatable=0;whiteSpace=wrap;html=1;" vertex="1" parent="l4a3ZNnCRkhxxQ0GikSz-102">
          <mxGeometry y="26" width="160" height="30" as="geometry" />
        </mxCell>
        <mxCell id="l4a3ZNnCRkhxxQ0GikSz-49" value="&lt;div&gt;- Nama&lt;/div&gt;" style="text;strokeColor=none;fillColor=none;align=left;verticalAlign=middle;spacingLeft=4;spacingRight=4;overflow=hidden;points=[[0,0.5],[1,0.5]];portConstraint=eastwest;rotatable=0;whiteSpace=wrap;html=1;" vertex="1" parent="l4a3ZNnCRkhxxQ0GikSz-102">
          <mxGeometry y="56" width="160" height="30" as="geometry" />
        </mxCell>
        <mxCell id="l4a3ZNnCRkhxxQ0GikSz-51" value="&lt;div&gt;- KategoriStandar&lt;/div&gt;" style="text;strokeColor=none;fillColor=none;align=left;verticalAlign=middle;spacingLeft=4;spacingRight=4;overflow=hidden;points=[[0,0.5],[1,0.5]];portConstraint=eastwest;rotatable=0;whiteSpace=wrap;html=1;" vertex="1" parent="l4a3ZNnCRkhxxQ0GikSz-102">
          <mxGeometry y="86" width="160" height="30" as="geometry" />
        </mxCell>
        <mxCell id="l4a3ZNnCRkhxxQ0GikSz-106" value="" style="line;strokeWidth=1;fillColor=none;align=left;verticalAlign=middle;spacingTop=-1;spacingLeft=3;spacingRight=3;rotatable=0;labelPosition=right;points=[];portConstraint=eastwest;strokeColor=inherit;" vertex="1" parent="l4a3ZNnCRkhxxQ0GikSz-102">
          <mxGeometry y="116" width="160" height="8" as="geometry" />
        </mxCell>
        <mxCell id="l4a3ZNnCRkhxxQ0GikSz-107" value="+ Setter dan Getter" style="text;strokeColor=none;fillColor=none;align=left;verticalAlign=top;spacingLeft=4;spacingRight=4;overflow=hidden;rotatable=0;points=[[0,0.5],[1,0.5]];portConstraint=eastwest;whiteSpace=wrap;html=1;" vertex="1" parent="l4a3ZNnCRkhxxQ0GikSz-102">
          <mxGeometry y="124" width="160" height="26" as="geometry" />
        </mxCell>
        <mxCell id="l4a3ZNnCRkhxxQ0GikSz-108" value="+ PrintNegara" style="text;strokeColor=none;fillColor=none;align=left;verticalAlign=top;spacingLeft=4;spacingRight=4;overflow=hidden;rotatable=0;points=[[0,0.5],[1,0.5]];portConstraint=eastwest;whiteSpace=wrap;html=1;" vertex="1" parent="l4a3ZNnCRkhxxQ0GikSz-102">
          <mxGeometry y="150" width="160" height="26" as="geometry" />
        </mxCell>
        <mxCell id="l4a3ZNnCRkhxxQ0GikSz-110" value="EksportirCilok" style="swimlane;fontStyle=1;align=center;verticalAlign=top;childLayout=stackLayout;horizontal=1;startSize=26;horizontalStack=0;resizeParent=1;resizeParentMax=0;resizeLast=0;collapsible=1;marginBottom=0;whiteSpace=wrap;html=1;" vertex="1" parent="1">
          <mxGeometry x="-390" y="330" width="160" height="120" as="geometry" />
        </mxCell>
        <mxCell id="l4a3ZNnCRkhxxQ0GikSz-42" value="&lt;div&gt;- StatusPedagang (T/F)&lt;/div&gt;" style="text;strokeColor=none;fillColor=none;align=left;verticalAlign=middle;spacingLeft=4;spacingRight=4;overflow=hidden;points=[[0,0.5],[1,0.5]];portConstraint=eastwest;rotatable=0;whiteSpace=wrap;html=1;" vertex="1" parent="l4a3ZNnCRkhxxQ0GikSz-110">
          <mxGeometry y="26" width="160" height="30" as="geometry" />
        </mxCell>
        <mxCell id="l4a3ZNnCRkhxxQ0GikSz-43" value="&lt;div&gt;- ListNegaraEksportirCilok&lt;/div&gt;" style="text;strokeColor=none;fillColor=none;align=left;verticalAlign=middle;spacingLeft=4;spacingRight=4;overflow=hidden;points=[[0,0.5],[1,0.5]];portConstraint=eastwest;rotatable=0;whiteSpace=wrap;html=1;" vertex="1" parent="l4a3ZNnCRkhxxQ0GikSz-110">
          <mxGeometry y="56" width="160" height="30" as="geometry" />
        </mxCell>
        <mxCell id="l4a3ZNnCRkhxxQ0GikSz-115" value="" style="line;strokeWidth=1;fillColor=none;align=left;verticalAlign=middle;spacingTop=-1;spacingLeft=3;spacingRight=3;rotatable=0;labelPosition=right;points=[];portConstraint=eastwest;strokeColor=inherit;" vertex="1" parent="l4a3ZNnCRkhxxQ0GikSz-110">
          <mxGeometry y="86" width="160" height="8" as="geometry" />
        </mxCell>
        <mxCell id="l4a3ZNnCRkhxxQ0GikSz-116" value="+ Setter dan Getter" style="text;strokeColor=none;fillColor=none;align=left;verticalAlign=top;spacingLeft=4;spacingRight=4;overflow=hidden;rotatable=0;points=[[0,0.5],[1,0.5]];portConstraint=eastwest;whiteSpace=wrap;html=1;" vertex="1" parent="l4a3ZNnCRkhxxQ0GikSz-110">
          <mxGeometry y="94" width="160" height="26" as="geometry" />
        </mxCell>
        <mxCell id="l4a3ZNnCRkhxxQ0GikSz-118" value="PedagangCilok" style="swimlane;fontStyle=1;align=center;verticalAlign=top;childLayout=stackLayout;horizontal=1;startSize=26;horizontalStack=0;resizeParent=1;resizeParentMax=0;resizeLast=0;collapsible=1;marginBottom=0;whiteSpace=wrap;html=1;" vertex="1" parent="1">
          <mxGeometry y="80" width="160" height="176" as="geometry" />
        </mxCell>
        <mxCell id="l4a3ZNnCRkhxxQ0GikSz-123" value="&lt;div&gt;- TahunAwalDagang&lt;/div&gt;" style="text;strokeColor=none;fillColor=none;align=left;verticalAlign=middle;spacingLeft=4;spacingRight=4;overflow=hidden;points=[[0,0.5],[1,0.5]];portConstraint=eastwest;rotatable=0;whiteSpace=wrap;html=1;" vertex="1" parent="l4a3ZNnCRkhxxQ0GikSz-118">
          <mxGeometry y="26" width="160" height="30" as="geometry" />
        </mxCell>
        <mxCell id="hUzoa4hwkYSUWMRfbID5-6" value="&lt;div&gt;- Jenis&lt;/div&gt;" style="text;strokeColor=none;fillColor=none;align=left;verticalAlign=middle;spacingLeft=4;spacingRight=4;overflow=hidden;points=[[0,0.5],[1,0.5]];portConstraint=eastwest;rotatable=0;whiteSpace=wrap;html=1;" parent="l4a3ZNnCRkhxxQ0GikSz-118" vertex="1">
          <mxGeometry y="56" width="160" height="30" as="geometry" />
        </mxCell>
        <mxCell id="l4a3ZNnCRkhxxQ0GikSz-160" value="- ListCilokDijual" style="text;strokeColor=none;fillColor=none;align=left;verticalAlign=middle;spacingLeft=4;spacingRight=4;overflow=hidden;points=[[0,0.5],[1,0.5]];portConstraint=eastwest;rotatable=0;whiteSpace=wrap;html=1;" vertex="1" parent="l4a3ZNnCRkhxxQ0GikSz-118">
          <mxGeometry y="86" width="160" height="30" as="geometry" />
        </mxCell>
        <mxCell id="l4a3ZNnCRkhxxQ0GikSz-121" value="" style="line;strokeWidth=1;fillColor=none;align=left;verticalAlign=middle;spacingTop=-1;spacingLeft=3;spacingRight=3;rotatable=0;labelPosition=right;points=[];portConstraint=eastwest;strokeColor=inherit;" vertex="1" parent="l4a3ZNnCRkhxxQ0GikSz-118">
          <mxGeometry y="116" width="160" height="8" as="geometry" />
        </mxCell>
        <mxCell id="l4a3ZNnCRkhxxQ0GikSz-122" value="+ Setter dan Getter" style="text;strokeColor=none;fillColor=none;align=left;verticalAlign=top;spacingLeft=4;spacingRight=4;overflow=hidden;rotatable=0;points=[[0,0.5],[1,0.5]];portConstraint=eastwest;whiteSpace=wrap;html=1;" vertex="1" parent="l4a3ZNnCRkhxxQ0GikSz-118">
          <mxGeometry y="124" width="160" height="26" as="geometry" />
        </mxCell>
        <mxCell id="l4a3ZNnCRkhxxQ0GikSz-129" value="+ PrintPedagang" style="text;strokeColor=none;fillColor=none;align=left;verticalAlign=top;spacingLeft=4;spacingRight=4;overflow=hidden;rotatable=0;points=[[0,0.5],[1,0.5]];portConstraint=eastwest;whiteSpace=wrap;html=1;" vertex="1" parent="l4a3ZNnCRkhxxQ0GikSz-118">
          <mxGeometry y="150" width="160" height="26" as="geometry" />
        </mxCell>
        <mxCell id="l4a3ZNnCRkhxxQ0GikSz-124" value="PenggemarCilok" style="swimlane;fontStyle=1;align=center;verticalAlign=top;childLayout=stackLayout;horizontal=1;startSize=26;horizontalStack=0;resizeParent=1;resizeParentMax=0;resizeLast=0;collapsible=1;marginBottom=0;whiteSpace=wrap;html=1;" vertex="1" parent="1">
          <mxGeometry x="210" y="54" width="160" height="146" as="geometry" />
        </mxCell>
        <mxCell id="l4a3ZNnCRkhxxQ0GikSz-15" value="&lt;div&gt;- ListPedagangCilok Langganan&lt;/div&gt;" style="text;strokeColor=none;fillColor=none;align=left;verticalAlign=middle;spacingLeft=4;spacingRight=4;overflow=hidden;points=[[0,0.5],[1,0.5]];portConstraint=eastwest;rotatable=0;whiteSpace=wrap;html=1;" vertex="1" parent="l4a3ZNnCRkhxxQ0GikSz-124">
          <mxGeometry y="26" width="160" height="30" as="geometry" />
        </mxCell>
        <mxCell id="l4a3ZNnCRkhxxQ0GikSz-62" value="- ListCilokFavorite" style="text;strokeColor=none;fillColor=none;align=left;verticalAlign=middle;spacingLeft=4;spacingRight=4;overflow=hidden;points=[[0,0.5],[1,0.5]];portConstraint=eastwest;rotatable=0;whiteSpace=wrap;html=1;" vertex="1" parent="l4a3ZNnCRkhxxQ0GikSz-124">
          <mxGeometry y="56" width="160" height="30" as="geometry" />
        </mxCell>
        <mxCell id="l4a3ZNnCRkhxxQ0GikSz-127" value="" style="line;strokeWidth=1;fillColor=none;align=left;verticalAlign=middle;spacingTop=-1;spacingLeft=3;spacingRight=3;rotatable=0;labelPosition=right;points=[];portConstraint=eastwest;strokeColor=inherit;" vertex="1" parent="l4a3ZNnCRkhxxQ0GikSz-124">
          <mxGeometry y="86" width="160" height="8" as="geometry" />
        </mxCell>
        <mxCell id="l4a3ZNnCRkhxxQ0GikSz-128" value="+ Setter dan Getter" style="text;strokeColor=none;fillColor=none;align=left;verticalAlign=top;spacingLeft=4;spacingRight=4;overflow=hidden;rotatable=0;points=[[0,0.5],[1,0.5]];portConstraint=eastwest;whiteSpace=wrap;html=1;" vertex="1" parent="l4a3ZNnCRkhxxQ0GikSz-124">
          <mxGeometry y="94" width="160" height="26" as="geometry" />
        </mxCell>
        <mxCell id="l4a3ZNnCRkhxxQ0GikSz-130" value="+ PrintPenggemar" style="text;strokeColor=none;fillColor=none;align=left;verticalAlign=top;spacingLeft=4;spacingRight=4;overflow=hidden;rotatable=0;points=[[0,0.5],[1,0.5]];portConstraint=eastwest;whiteSpace=wrap;html=1;" vertex="1" parent="l4a3ZNnCRkhxxQ0GikSz-124">
          <mxGeometry y="120" width="160" height="26" as="geometry" />
        </mxCell>
        <mxCell id="l4a3ZNnCRkhxxQ0GikSz-131" value="OrangCilok" style="swimlane;fontStyle=1;align=center;verticalAlign=top;childLayout=stackLayout;horizontal=1;startSize=26;horizontalStack=0;resizeParent=1;resizeParentMax=0;resizeLast=0;collapsible=1;marginBottom=0;whiteSpace=wrap;html=1;" vertex="1" parent="1">
          <mxGeometry x="140" y="-176" width="160" height="176" as="geometry" />
        </mxCell>
        <mxCell id="l4a3ZNnCRkhxxQ0GikSz-58" value="&lt;div&gt;- NoKTP&lt;/div&gt;" style="text;strokeColor=none;fillColor=none;align=left;verticalAlign=middle;spacingLeft=4;spacingRight=4;overflow=hidden;points=[[0,0.5],[1,0.5]];portConstraint=eastwest;rotatable=0;whiteSpace=wrap;html=1;" vertex="1" parent="l4a3ZNnCRkhxxQ0GikSz-131">
          <mxGeometry y="26" width="160" height="30" as="geometry" />
        </mxCell>
        <mxCell id="l4a3ZNnCRkhxxQ0GikSz-59" value="&lt;div&gt;- Nama&lt;/div&gt;" style="text;strokeColor=none;fillColor=none;align=left;verticalAlign=middle;spacingLeft=4;spacingRight=4;overflow=hidden;points=[[0,0.5],[1,0.5]];portConstraint=eastwest;rotatable=0;whiteSpace=wrap;html=1;" vertex="1" parent="l4a3ZNnCRkhxxQ0GikSz-131">
          <mxGeometry y="56" width="160" height="30" as="geometry" />
        </mxCell>
        <mxCell id="l4a3ZNnCRkhxxQ0GikSz-60" value="&lt;div&gt;- Alamat&lt;/div&gt;" style="text;strokeColor=none;fillColor=none;align=left;verticalAlign=middle;spacingLeft=4;spacingRight=4;overflow=hidden;points=[[0,0.5],[1,0.5]];portConstraint=eastwest;rotatable=0;whiteSpace=wrap;html=1;" vertex="1" parent="l4a3ZNnCRkhxxQ0GikSz-131">
          <mxGeometry y="86" width="160" height="30" as="geometry" />
        </mxCell>
        <mxCell id="l4a3ZNnCRkhxxQ0GikSz-134" value="" style="line;strokeWidth=1;fillColor=none;align=left;verticalAlign=middle;spacingTop=-1;spacingLeft=3;spacingRight=3;rotatable=0;labelPosition=right;points=[];portConstraint=eastwest;strokeColor=inherit;" vertex="1" parent="l4a3ZNnCRkhxxQ0GikSz-131">
          <mxGeometry y="116" width="160" height="8" as="geometry" />
        </mxCell>
        <mxCell id="l4a3ZNnCRkhxxQ0GikSz-135" value="+ Setter dan Getter" style="text;strokeColor=none;fillColor=none;align=left;verticalAlign=top;spacingLeft=4;spacingRight=4;overflow=hidden;rotatable=0;points=[[0,0.5],[1,0.5]];portConstraint=eastwest;whiteSpace=wrap;html=1;" vertex="1" parent="l4a3ZNnCRkhxxQ0GikSz-131">
          <mxGeometry y="124" width="160" height="26" as="geometry" />
        </mxCell>
        <mxCell id="l4a3ZNnCRkhxxQ0GikSz-136" value="+ PrintOrang" style="text;strokeColor=none;fillColor=none;align=left;verticalAlign=top;spacingLeft=4;spacingRight=4;overflow=hidden;rotatable=0;points=[[0,0.5],[1,0.5]];portConstraint=eastwest;whiteSpace=wrap;html=1;" vertex="1" parent="l4a3ZNnCRkhxxQ0GikSz-131">
          <mxGeometry y="150" width="160" height="26" as="geometry" />
        </mxCell>
        <mxCell id="l4a3ZNnCRkhxxQ0GikSz-137" style="rounded=0;orthogonalLoop=1;jettySize=auto;html=1;exitX=0.5;exitY=0;exitDx=0;exitDy=0;entryX=0.414;entryY=1.09;entryDx=0;entryDy=0;entryPerimeter=0;endSize=12;" edge="1" parent="1" source="l4a3ZNnCRkhxxQ0GikSz-118" target="l4a3ZNnCRkhxxQ0GikSz-136">
          <mxGeometry relative="1" as="geometry" />
        </mxCell>
        <mxCell id="l4a3ZNnCRkhxxQ0GikSz-138" style="rounded=0;orthogonalLoop=1;jettySize=auto;html=1;exitX=0.5;exitY=0;exitDx=0;exitDy=0;entryX=0.447;entryY=1.031;entryDx=0;entryDy=0;entryPerimeter=0;endSize=12;" edge="1" parent="1" source="l4a3ZNnCRkhxxQ0GikSz-124" target="l4a3ZNnCRkhxxQ0GikSz-136">
          <mxGeometry relative="1" as="geometry" />
        </mxCell>
        <mxCell id="l4a3ZNnCRkhxxQ0GikSz-145" value="Cilok" style="swimlane;fontStyle=1;align=center;verticalAlign=top;childLayout=stackLayout;horizontal=1;startSize=26;horizontalStack=0;resizeParent=1;resizeParentMax=0;resizeLast=0;collapsible=1;marginBottom=0;whiteSpace=wrap;html=1;" vertex="1" parent="1">
          <mxGeometry x="120" y="320" width="160" height="236" as="geometry" />
        </mxCell>
        <mxCell id="hUzoa4hwkYSUWMRfbID5-14" value="&lt;div&gt;- KodeCilok&lt;/div&gt;" style="text;strokeColor=none;fillColor=none;align=left;verticalAlign=middle;spacingLeft=4;spacingRight=4;overflow=hidden;points=[[0,0.5],[1,0.5]];portConstraint=eastwest;rotatable=0;whiteSpace=wrap;html=1;" parent="l4a3ZNnCRkhxxQ0GikSz-145" vertex="1">
          <mxGeometry y="26" width="160" height="30" as="geometry" />
        </mxCell>
        <mxCell id="l4a3ZNnCRkhxxQ0GikSz-24" value="&lt;div&gt;- Nama&lt;/div&gt;" style="text;strokeColor=none;fillColor=none;align=left;verticalAlign=middle;spacingLeft=4;spacingRight=4;overflow=hidden;points=[[0,0.5],[1,0.5]];portConstraint=eastwest;rotatable=0;whiteSpace=wrap;html=1;" vertex="1" parent="l4a3ZNnCRkhxxQ0GikSz-145">
          <mxGeometry y="56" width="160" height="30" as="geometry" />
        </mxCell>
        <mxCell id="l4a3ZNnCRkhxxQ0GikSz-25" value="&lt;div&gt;- IsianCilok&lt;/div&gt;" style="text;strokeColor=none;fillColor=none;align=left;verticalAlign=middle;spacingLeft=4;spacingRight=4;overflow=hidden;points=[[0,0.5],[1,0.5]];portConstraint=eastwest;rotatable=0;whiteSpace=wrap;html=1;" vertex="1" parent="l4a3ZNnCRkhxxQ0GikSz-145">
          <mxGeometry y="86" width="160" height="30" as="geometry" />
        </mxCell>
        <mxCell id="l4a3ZNnCRkhxxQ0GikSz-26" value="- Harga" style="text;strokeColor=none;fillColor=none;align=left;verticalAlign=middle;spacingLeft=4;spacingRight=4;overflow=hidden;points=[[0,0.5],[1,0.5]];portConstraint=eastwest;rotatable=0;whiteSpace=wrap;html=1;" vertex="1" parent="l4a3ZNnCRkhxxQ0GikSz-145">
          <mxGeometry y="116" width="160" height="30" as="geometry" />
        </mxCell>
        <mxCell id="l4a3ZNnCRkhxxQ0GikSz-30" value="- berat (dalam gram)" style="text;strokeColor=none;fillColor=none;align=left;verticalAlign=middle;spacingLeft=4;spacingRight=4;overflow=hidden;points=[[0,0.5],[1,0.5]];portConstraint=eastwest;rotatable=0;whiteSpace=wrap;html=1;" vertex="1" parent="l4a3ZNnCRkhxxQ0GikSz-145">
          <mxGeometry y="146" width="160" height="30" as="geometry" />
        </mxCell>
        <mxCell id="l4a3ZNnCRkhxxQ0GikSz-150" value="" style="line;strokeWidth=1;fillColor=none;align=left;verticalAlign=middle;spacingTop=-1;spacingLeft=3;spacingRight=3;rotatable=0;labelPosition=right;points=[];portConstraint=eastwest;strokeColor=inherit;" vertex="1" parent="l4a3ZNnCRkhxxQ0GikSz-145">
          <mxGeometry y="176" width="160" height="8" as="geometry" />
        </mxCell>
        <mxCell id="l4a3ZNnCRkhxxQ0GikSz-151" value="+ Setter dan Getter" style="text;strokeColor=none;fillColor=none;align=left;verticalAlign=top;spacingLeft=4;spacingRight=4;overflow=hidden;rotatable=0;points=[[0,0.5],[1,0.5]];portConstraint=eastwest;whiteSpace=wrap;html=1;" vertex="1" parent="l4a3ZNnCRkhxxQ0GikSz-145">
          <mxGeometry y="184" width="160" height="26" as="geometry" />
        </mxCell>
        <mxCell id="l4a3ZNnCRkhxxQ0GikSz-152" value="+ PrintCilok" style="text;strokeColor=none;fillColor=none;align=left;verticalAlign=top;spacingLeft=4;spacingRight=4;overflow=hidden;rotatable=0;points=[[0,0.5],[1,0.5]];portConstraint=eastwest;whiteSpace=wrap;html=1;" vertex="1" parent="l4a3ZNnCRkhxxQ0GikSz-145">
          <mxGeometry y="210" width="160" height="26" as="geometry" />
        </mxCell>
        <mxCell id="l4a3ZNnCRkhxxQ0GikSz-153" value="IsianCilok" style="swimlane;fontStyle=1;align=center;verticalAlign=top;childLayout=stackLayout;horizontal=1;startSize=26;horizontalStack=0;resizeParent=1;resizeParentMax=0;resizeLast=0;collapsible=1;marginBottom=0;whiteSpace=wrap;html=1;" vertex="1" parent="1">
          <mxGeometry x="320" y="497" width="160" height="176" as="geometry" />
        </mxCell>
        <mxCell id="l4a3ZNnCRkhxxQ0GikSz-3" value="&lt;div&gt;- KodeBahanIsian&lt;/div&gt;" style="text;strokeColor=none;fillColor=none;align=left;verticalAlign=middle;spacingLeft=4;spacingRight=4;overflow=hidden;points=[[0,0.5],[1,0.5]];portConstraint=eastwest;rotatable=0;whiteSpace=wrap;html=1;" vertex="1" parent="l4a3ZNnCRkhxxQ0GikSz-153">
          <mxGeometry y="26" width="160" height="30" as="geometry" />
        </mxCell>
        <mxCell id="l4a3ZNnCRkhxxQ0GikSz-27" value="&lt;div&gt;- NamaIsian&lt;/div&gt;" style="text;strokeColor=none;fillColor=none;align=left;verticalAlign=middle;spacingLeft=4;spacingRight=4;overflow=hidden;points=[[0,0.5],[1,0.5]];portConstraint=eastwest;rotatable=0;whiteSpace=wrap;html=1;" vertex="1" parent="l4a3ZNnCRkhxxQ0GikSz-153">
          <mxGeometry y="56" width="160" height="30" as="geometry" />
        </mxCell>
        <mxCell id="l4a3ZNnCRkhxxQ0GikSz-28" value="&lt;div&gt;- Status (vegetarian/non-vegetarian)&lt;/div&gt;" style="text;strokeColor=none;fillColor=none;align=left;verticalAlign=middle;spacingLeft=4;spacingRight=4;overflow=hidden;points=[[0,0.5],[1,0.5]];portConstraint=eastwest;rotatable=0;whiteSpace=wrap;html=1;" vertex="1" parent="l4a3ZNnCRkhxxQ0GikSz-153">
          <mxGeometry y="86" width="160" height="30" as="geometry" />
        </mxCell>
        <mxCell id="l4a3ZNnCRkhxxQ0GikSz-155" value="" style="line;strokeWidth=1;fillColor=none;align=left;verticalAlign=middle;spacingTop=-1;spacingLeft=3;spacingRight=3;rotatable=0;labelPosition=right;points=[];portConstraint=eastwest;strokeColor=inherit;" vertex="1" parent="l4a3ZNnCRkhxxQ0GikSz-153">
          <mxGeometry y="116" width="160" height="8" as="geometry" />
        </mxCell>
        <mxCell id="l4a3ZNnCRkhxxQ0GikSz-156" value="+ Setter dan Getter" style="text;strokeColor=none;fillColor=none;align=left;verticalAlign=top;spacingLeft=4;spacingRight=4;overflow=hidden;rotatable=0;points=[[0,0.5],[1,0.5]];portConstraint=eastwest;whiteSpace=wrap;html=1;" vertex="1" parent="l4a3ZNnCRkhxxQ0GikSz-153">
          <mxGeometry y="124" width="160" height="26" as="geometry" />
        </mxCell>
        <mxCell id="l4a3ZNnCRkhxxQ0GikSz-157" value="+ PrintIsian" style="text;strokeColor=none;fillColor=none;align=left;verticalAlign=top;spacingLeft=4;spacingRight=4;overflow=hidden;rotatable=0;points=[[0,0.5],[1,0.5]];portConstraint=eastwest;whiteSpace=wrap;html=1;" vertex="1" parent="l4a3ZNnCRkhxxQ0GikSz-153">
          <mxGeometry y="150" width="160" height="26" as="geometry" />
        </mxCell>
        <mxCell id="l4a3ZNnCRkhxxQ0GikSz-161" style="edgeStyle=orthogonalEdgeStyle;rounded=0;orthogonalLoop=1;jettySize=auto;html=1;exitX=0;exitY=0.5;exitDx=0;exitDy=0;entryX=0.25;entryY=0;entryDx=0;entryDy=0;endArrow=none;startFill=0;" edge="1" parent="1" source="l4a3ZNnCRkhxxQ0GikSz-160" target="l4a3ZNnCRkhxxQ0GikSz-145">
          <mxGeometry relative="1" as="geometry">
            <Array as="points">
              <mxPoint x="-20" y="181" />
              <mxPoint x="-20" y="290" />
              <mxPoint x="160" y="290" />
            </Array>
          </mxGeometry>
        </mxCell>
      </root>
    </mxGraphModel>
  </diagram>
</mxfile>
